{
    "asset" : {
        "generator" : "Khronos glTF Blender I/O v1.6.16",
        "version" : "2.0"
    },
    "scene" : 0,
    "scenes" : [
        {
            "name" : "Scene",
            "nodes" : [
                0
            ]
        }
    ],
    "nodes" : [
        {
            "mesh" : 0,
            "name" : "Plane",
            "scale" : [
                10,
                10,
                10
            ]
        }
    ],
    "meshes" : [
        {
            "name" : "Plane",
            "primitives" : [
                {
                    "attributes" : {
                        "POSITION" : 0,
                        "NORMAL" : 1,
                        "TEXCOORD_0" : 2
                    },
                    "indices" : 3
                }
            ]
        }
    ],
    "accessors" : [
        {
            "bufferView" : 0,
            "componentType" : 5126,
            "count" : 285524,
            "max" : [
                1.000000238418579,
                0,
                1.000000238418579
            ],
            "min" : [
                -1.000000238418579,
                0,
                -1.000000238418579
            ],
            "type" : "VEC3"
        },
        {
            "bufferView" : 1,
            "componentType" : 5126,
            "count" : 285524,
            "type" : "VEC3"
        },
        {
            "bufferView" : 2,
            "componentType" : 5126,
            "count" : 285524,
            "type" : "VEC2"
        },
        {
            "bufferView" : 3,
            "componentType" : 5125,
            "count" : 1572864,
            "type" : "SCALAR"
        }
    ],
    "bufferViews" : [
        {
            "buffer" : 0,
            "byteLength" : 3426288,
            "byteOffset" : 0
        },
        {
            "buffer" : 0,
            "byteLength" : 3426288,
            "byteOffset" : 3426288
        },
        {
            "buffer" : 0,
            "byteLength" : 2284192,
            "byteOffset" : 6852576
        },
        {
            "buffer" : 0,
            "byteLength" : 6291456,
            "byteOffset" : 9136768
        }
    ],
    "buffers" : [
        {
            "byteLength" : 15428224,
            "uri" : "plane.bin"
        }
    ]
}
